# xmcd CD database file
#
# Track frame offsets:
#	150
#	14149
#	27493
#	44328
#	65921
#	78871
#	92367
#	103236
#	121149
#	133133
#
# Disc length: 2013 seconds
#
# Revision: 0
# Processed by: cddbd v1.5.2PL0 Copyright (c) Steve Scherf et al.
# Submitted via: CDex 1.70beta2
#
DISCID=8807db0a
DTITLE=Female singers - Audition Songs 8 - Playbacks
DYEAR=2002
DGENRE=Blues
TTITLE0=Cry me A River - Arthur Hamilton
TTITLE1=Black Coffee - Sonny Burke
TTITLE2=Fine And Mellow - Billie Holiday
TTITLE3=The Lady Sings The Blues - Billie Holliday
TTITLE4=Lover Man (Oh Where Can You Be) - Jimmy Sherman
TTITLE5=God Bless The Child - Billie Holiday
TTITLE6=Moonglow - Irving Mills
TTITLE7=Natural Blues - Vera Hall and Moby
TTITLE8=Please Send Me Someone To Love - Percy Mayfield
TTITLE9=Solitude - Duke Ellington
EXTD=YEAR: 2002
EXTT0=
EXTT1=
EXTT2=
EXTT3=
EXTT4=
EXTT5=
EXTT6=
EXTT7=
EXTT8=
EXTT9=
PLAYORDER=
